<svg xmlns="http://www.w3.org/2000/svg" viewBox="0 0 980 530" width="980" height="530" font-family="Calibri, Arial, sans-serif">

  <!-- Background -->
  <rect width="980" height="530" fill="#FFFFFF"/>

  <!-- Title -->
  <text x="490" y="38" text-anchor="middle" font-size="20" font-weight="bold" fill="#1D3A5C">Orchestrator — Task Lifecycle</text>
  <text x="490" y="58" text-anchor="middle" font-size="12" fill="#5A6F80">State machine for a single task · actor bars show which file owns each phase</text>
  <line x1="100" y1="66" x2="880" y2="66" stroke="#C89632" stroke-width="1.5"/>

  <!-- ===== STATE MACHINE ROW ===== -->

  <!-- QUEUED state -->
  <rect x="50" y="94" width="132" height="54" rx="6" fill="#EAEFF5" stroke="#1D3A5C" stroke-width="1.5"/>
  <text x="116" y="118" text-anchor="middle" font-size="13" font-weight="bold" fill="#1D3A5C">QUEUED</text>
  <text x="116" y="136" text-anchor="middle" font-size="10" fill="#5A6F80">task accepted</text>

  <!-- Arrow QUEUED → DISPATCHED -->
  <line x1="182" y1="121" x2="233" y2="121" stroke="#1D3A5C" stroke-width="1.5"/>
  <polygon points="231,117 239,121 231,125" fill="#1D3A5C"/>
  <!-- Transition label -->
  <text x="207" y="112" text-anchor="middle" font-size="9" fill="#1D3A5C" font-weight="bold">POST /task</text>
  <text x="207" y="143" text-anchor="middle" font-size="8" fill="#5A6F80" font-style="italic">server.py</text>

  <!-- DISPATCHED state -->
  <rect x="239" y="94" width="140" height="54" rx="6" fill="#EAEFF5" stroke="#1D3A5C" stroke-width="1.5"/>
  <text x="309" y="118" text-anchor="middle" font-size="13" font-weight="bold" fill="#1D3A5C">DISPATCHED</text>
  <text x="309" y="136" text-anchor="middle" font-size="10" fill="#5A6F80">claim + enqueue</text>

  <!-- Arrow DISPATCHED → POLLING -->
  <line x1="379" y1="121" x2="426" y2="121" stroke="#1D3A5C" stroke-width="1.5"/>
  <polygon points="424,117 432,121 424,125" fill="#1D3A5C"/>
  <!-- Transition label -->
  <text x="402" y="112" text-anchor="middle" font-size="9" fill="#1D3A5C" font-weight="bold">dispatch call</text>
  <text x="402" y="143" text-anchor="middle" font-size="8" fill="#5A6F80" font-style="italic">orchestrator.py</text>

  <!-- POLLING state -->
  <rect x="432" y="94" width="144" height="54" rx="6" fill="#EAEFF5" stroke="#1D3A5C" stroke-width="1.5"/>
  <text x="504" y="118" text-anchor="middle" font-size="13" font-weight="bold" fill="#1D3A5C">POLLING…</text>
  <text x="504" y="136" text-anchor="middle" font-size="10" fill="#5A6F80">GET /task/{id}</text>

  <!-- Arrow POLLING → COMPLETE (top branch) -->
  <line x1="576" y1="114" x2="657" y2="114" stroke="#1D3A5C" stroke-width="1.5"/>
  <polygon points="655,110 663,114 655,118" fill="#1D3A5C"/>
  <text x="614" y="106" text-anchor="middle" font-size="9" fill="#1D3A5C" font-weight="bold">result received</text>
  <text x="614" y="128" text-anchor="middle" font-size="8" fill="#5A6F80" font-style="italic">dispatch.py</text>

  <!-- Arrow POLLING → FAILED (downward branch) -->
  <line x1="504" y1="148" x2="504" y2="192" stroke="#C89632" stroke-width="1.5"/>
  <polygon points="500,190 508,190 504,199" fill="#C89632"/>
  <text x="528" y="170" text-anchor="start" font-size="9" fill="#C89632" font-weight="bold">timeout / error</text>
  <text x="528" y="184" text-anchor="start" font-size="8" fill="#8A6200" font-style="italic">dispatch.py</text>

  <!-- COMPLETE state (terminal, gold border) -->
  <rect x="663" y="94" width="138" height="54" rx="6" fill="#FFFBF0" stroke="#C89632" stroke-width="2.5"/>
  <text x="732" y="118" text-anchor="middle" font-size="13" font-weight="bold" fill="#8A6200">COMPLETE</text>
  <text x="732" y="136" text-anchor="middle" font-size="10" fill="#8A6200">result stored</text>

  <!-- FAILED state -->
  <rect x="432" y="199" width="144" height="54" rx="6" fill="#F8F8F7" stroke="#5A6F80" stroke-width="1.5" stroke-dasharray="5,3"/>
  <text x="504" y="223" text-anchor="middle" font-size="13" font-weight="bold" fill="#5A6F80">FAILED</text>
  <text x="504" y="241" text-anchor="middle" font-size="10" fill="#8E9FAD">error captured</text>

  <!-- Arrow FAILED → DISPATCHED (retry arc) -->
  <path d="M 432,226 Q 310,280 309,149" fill="none" stroke="#5A6F80" stroke-width="1.5" stroke-dasharray="5,3"/>
  <polygon points="305,151 313,151 309,142" fill="#5A6F80"/>
  <text x="342" y="272" text-anchor="middle" font-size="9" fill="#5A6F80" font-weight="bold">retry</text>
  <text x="342" y="286" text-anchor="middle" font-size="8" fill="#8E9FAD" font-style="italic">orchestrator.py</text>

  <!-- Vertical reference lines (faint) from states down to actor bars -->
  <line x1="116" y1="148" x2="116" y2="318" stroke="#E4E4DC" stroke-width="1"/>
  <line x1="309" y1="148" x2="309" y2="318" stroke="#E4E4DC" stroke-width="1"/>
  <line x1="504" y1="148" x2="504" y2="318" stroke="#E4E4DC" stroke-width="1"/>
  <line x1="732" y1="148" x2="732" y2="318" stroke="#E4E4DC" stroke-width="1"/>

  <!-- ===== ACTOR BARS SECTION ===== -->
  <text x="490" y="310" text-anchor="middle" font-size="10" fill="#8E9FAD" font-style="italic">actor activity by phase</text>

  <!-- Label column background -->
  <rect x="0" y="318" width="134" height="166" fill="#F8F8F7"/>

  <!-- Row grid lines -->
  <line x1="0" y1="318" x2="980" y2="318" stroke="#E4E4DC" stroke-width="1"/>
  <line x1="0" y1="352" x2="980" y2="352" stroke="#E4E4DC" stroke-width="1"/>
  <line x1="0" y1="386" x2="980" y2="386" stroke="#E4E4DC" stroke-width="1"/>
  <line x1="0" y1="420" x2="980" y2="420" stroke="#E4E4DC" stroke-width="1"/>
  <line x1="0" y1="454" x2="980" y2="454" stroke="#E4E4DC" stroke-width="1"/>
  <line x1="0" y1="484" x2="980" y2="484" stroke="#E4E4DC" stroke-width="1"/>

  <!-- Left label divider -->
  <line x1="134" y1="318" x2="134" y2="484" stroke="#C8C8C0" stroke-width="1"/>

  <!-- Actor row labels -->
  <text x="67" y="339" text-anchor="middle" font-size="10" fill="#1D3A5C" font-weight="bold">Client</text>
  <text x="67" y="373" text-anchor="middle" font-size="10" fill="#1D3A5C" font-weight="bold">server.py</text>
  <text x="67" y="407" text-anchor="middle" font-size="10" fill="#1D3A5C" font-weight="bold">orchestrator.py</text>
  <text x="67" y="441" text-anchor="middle" font-size="10" fill="#1D3A5C" font-weight="bold">Drone API</text>
  <text x="67" y="471" text-anchor="middle" font-size="10" fill="#1D3A5C" font-weight="bold">PostGIS</text>

  <!-- === Client bar: active at QUEUED phase === -->
  <rect x="136" y="322" width="176" height="26" rx="3" fill="#8E9FAD" opacity="0.7"/>
  <text x="224" y="339" text-anchor="middle" font-size="9" fill="#FFFFFF">submits task · waits for result</text>

  <!-- === server.py bar: QUEUED + DISPATCHED === -->
  <rect x="136" y="356" width="245" height="26" rx="3" fill="#5A6F80" opacity="0.8"/>
  <text x="258" y="373" text-anchor="middle" font-size="9" fill="#FFFFFF">validates · stores QUEUED → DISPATCHED</text>

  <!-- === orchestrator.py bar: DISPATCHED → COMPLETE === -->
  <rect x="243" y="390" width="529" height="26" rx="3" fill="#1D3A5C" opacity="0.85"/>
  <text x="507" y="407" text-anchor="middle" font-size="9" fill="#FFFFFF">claims task · manages run · writes result · handles retry</text>

  <!-- === Drone API bar: POLLING phase === -->
  <rect x="432" y="424" width="300" height="26" rx="3" fill="#C89632" opacity="0.85"/>
  <text x="582" y="441" text-anchor="middle" font-size="9" fill="#FFFFFF">executes task · polled via GET /task/{id}</text>

  <!-- === PostGIS bar: COMPLETE phase === -->
  <rect x="662" y="458" width="210" height="22" rx="3" fill="#7B8FA0" opacity="0.8"/>
  <text x="767" y="473" text-anchor="middle" font-size="9" fill="#FFFFFF">stores result + metadata</text>

  <!-- Footer -->
  <line x1="60" y1="510" x2="920" y2="510" stroke="#C89632" stroke-width="1"/>
  <text x="490" y="523" text-anchor="middle" font-size="10" fill="#8E9FAD">Datum · Orchestrator Reference · supplements sequence-orchestrate.mmd</text>

</svg>
